<svg width="628" height="505" viewBox="0 0 628 505" fill="none" xmlns="http://www.w3.org/2000/svg">
<g clip-path="url(#clip0_71_337)">
<path d="M422.055 295.395L431.407 474.289L454.777 471.487L467.58 286.555L422.055 295.395Z" fill="#FFB6B6"/>
<path d="M457.847 463.469C457.847 463.469 470.847 497.469 453.847 499.469C436.847 501.469 387.847 510.469 387.847 497.469C387.847 484.469 412.847 479.469 412.847 479.469C412.847 479.469 424.847 460.469 429.847 462.469C434.847 464.469 438.847 475.469 447.847 472.469C456.847 469.469 457.847 463.469 457.847 463.469Z" fill="#2F2E41"/>
<path d="M423.347 58.969H394.347V95.969H423.347V58.969Z" fill="#FFB6B6"/>
<path d="M408.097 77.969C426.46 77.969 441.347 63.0825 441.347 44.719C441.347 26.3555 426.46 11.469 408.097 11.469C389.733 11.469 374.847 26.3555 374.847 44.719C374.847 63.0825 389.733 77.969 408.097 77.969Z" fill="#FFB6B6"/>
<path d="M444.847 180.469L448.847 147.469L467.847 148.469L471.847 187.469L487.588 259.692L487.626 259.682L487.61 259.688L492.183 279.41C494.976 282.874 496.898 286.957 497.788 291.317C500.169 302.197 496.487 312.24 489.565 313.755C482.643 315.27 475.104 307.68 472.726 296.803C471.715 292.468 471.758 287.954 472.85 283.64L468.582 268.711L444.847 180.469Z" fill="#FFB6B6"/>
<path d="M392.347 84.969H427.347L461.347 102.969L449.347 174.969L463.347 219.969C463.347 219.969 388.347 242.969 365.347 232.969L375.347 174.969L368.347 97.969C368.347 97.969 392.347 84.969 392.347 84.969Z" fill="#1B4965"/>
<path d="M454.847 103.469C454.847 103.469 466.847 99.4691 468.847 106.469C470.847 113.469 475.847 155.469 475.847 155.469L445.847 156.469C445.847 156.469 454.847 103.469 454.847 103.469Z" fill="#1B4965"/>
<path d="M291.04 235.052C289.828 235.052 288.646 234.959 287.51 234.772C282.883 234.007 279.556 231.76 278.143 228.445C276.729 225.129 277.411 221.174 280.064 217.306C282.67 213.507 286.879 210.232 291.918 208.085C296 206.28 300.511 205.46 304.965 205.703L346.375 184.151L349.378 153.121L372.294 143.746L375.479 185.955C376.013 193.036 371.964 199.617 365.403 202.332L313.138 224.83C310.226 228.223 306.506 230.911 302.372 232.606C298.594 234.217 294.679 235.052 291.04 235.052Z" fill="#FFB6B6"/>
<path d="M376.847 97.469C376.847 97.469 356.847 90.469 350.847 112.469C344.847 134.469 346.847 154.469 346.847 154.469L380.847 151.469C380.847 151.469 376.847 97.469 376.847 97.469Z" fill="#1B4965"/>
<path d="M298.409 191.64L298.404 191.635L298.394 191.645L298.384 191.655C295.174 195.244 290.508 197.509 285.307 197.509C275.623 197.509 267.767 189.653 267.767 179.969C267.767 177.742 268.185 175.614 268.952 173.662L268.952 173.662L268.955 173.652C269.285 172.761 269.691 171.909 270.175 171.107L270.175 171.107L270.178 171.102C273.221 165.909 278.861 162.429 285.307 162.429C295 162.429 302.847 170.285 302.847 179.969V180.086C302.837 180.79 302.798 181.469 302.71 182.134L302.71 182.134L302.709 182.144C302.67 182.495 302.623 182.823 302.55 183.135L302.547 183.147L302.544 183.16C301.966 186.363 300.516 189.26 298.45 191.594C298.443 191.599 298.438 191.603 298.433 191.607C298.432 191.609 298.43 191.61 298.428 191.612C298.424 191.616 298.42 191.619 298.416 191.622L298.409 191.629L298.406 191.632L298.405 191.633L298.404 191.634L298.404 191.635L298.404 191.635C298.404 191.635 298.404 191.635 298.409 191.64C298.409 191.64 298.409 191.64 298.409 191.64ZM298.506 191.737L298.507 191.738C298.559 191.79 298.638 191.869 298.757 191.989L298.506 191.737Z" fill="#1B4965" stroke="white"/>
<path d="M269.367 172.647C269.586 172.164 269.828 171.695 270.095 171.241C270.367 171.116 270.654 170.969 270.941 170.821C270.966 170.809 270.99 170.797 271.014 170.784L271.014 170.784L271.02 170.781C271.386 170.588 271.682 170.405 271.936 170.249C271.942 170.245 271.949 170.241 271.955 170.237C272.638 169.831 273.161 169.521 274.069 169.406C276.078 169.159 277.715 170.164 278.381 170.583L278.381 170.583C280.415 171.857 281.323 173.65 282.104 175.191L282.109 175.202C282.546 176.094 283.352 177.951 283.701 180.448L283.701 180.449C283.914 181.947 283.847 182.776 283.788 183.465C283.726 184.129 283.692 184.612 283.912 185.491L283.912 185.494C284.574 188.077 286.452 189.764 287.49 190.522C288.195 191.043 290.424 192.684 293.568 192.418C294.365 192.353 296.406 192.037 298.16 190.551L298.163 190.549C299.208 189.653 300.119 188.355 300.733 187.036C301.34 185.729 301.692 184.32 301.521 183.203C301.459 182.797 301.34 181.965 301.854 181.316C301.985 181.161 302.197 180.957 302.828 180.749C302.813 181.091 302.789 181.427 302.755 181.759H302.75L302.601 181.981C302.511 182.115 302.484 182.262 302.472 182.354C302.46 182.456 302.46 182.56 302.465 182.651C302.474 182.825 302.501 182.997 302.523 183.111C302.529 183.154 302.533 183.185 302.535 183.211C301.95 186.394 300.505 189.272 298.45 191.594C298.448 191.595 298.446 191.597 298.444 191.598C296.65 192.964 294.701 193.335 293.658 193.421C293.4 193.439 293.143 193.449 292.876 193.449C290.838 193.449 288.83 192.753 286.893 191.326L286.893 191.326C285.723 190.466 283.68 188.603 282.941 185.736C282.682 184.696 282.727 184.08 282.784 183.383C282.847 182.72 282.908 181.968 282.712 180.59C282.382 178.231 281.63 176.488 281.214 175.656L281.214 175.655C280.486 174.201 279.674 172.579 277.855 171.427L277.855 171.427L277.85 171.423C277.838 171.416 277.826 171.409 277.813 171.401C277.25 171.053 275.843 170.183 274.194 170.393L274.194 170.393L274.191 170.393C273.487 170.487 273.09 170.725 272.501 171.077L272.48 171.09L272.48 171.09L272.472 171.094C272.183 171.275 271.878 171.464 271.489 171.664L271.489 171.664L271.482 171.668C270.731 172.068 270.025 172.393 269.367 172.647Z" fill="#F2F2F2" stroke="white"/>
<path d="M485.652 317.561L472.985 314.471L497.818 232.11L493.927 215.055L521.161 221.858L507.962 236.48L485.652 317.561Z" fill="#3F3D56"/>
<path d="M553.062 187.05C561.56 161.067 553.13 134.992 534.233 128.812C515.336 122.631 493.127 138.685 484.629 164.669C476.131 190.652 484.561 216.727 503.458 222.907C522.355 229.087 544.564 213.034 553.062 187.05ZM549.26 185.807C541.706 208.904 521.965 223.173 505.168 217.68C488.371 212.186 480.877 189.009 488.431 165.912C495.985 142.815 515.726 128.546 532.523 134.039C549.321 139.533 556.814 162.71 549.26 185.807Z" fill="#3F3D56"/>
<path d="M440.306 44.7393L446.077 59.942L460.05 85.0102C474.577 111.07 480.91 140.904 478.225 170.618V170.618L441.131 168.793L436.837 156.639C426.01 125.988 422.031 93.5103 423.372 61.0314C424.013 45.4906 417.231 33.6887 402.347 25.969L440.306 44.7393V44.7393Z" fill="#2F2E41"/>
<path d="M444.347 55.9691L428.347 40.9691C428.347 40.9691 407.347 33.9691 398.347 27.9691C392.652 24.1728 384.156 28.383 378.682 31.9879C375.169 34.3021 370.677 34.5129 366.984 32.4982C364.333 31.0526 363.171 27.8619 364.271 25.0505V25.0505C368.355 14.6157 379.382 8.66065 390.347 10.9691H390.347L398.238 5.33227C406.377 -0.481229 416.96 -1.62521 426.153 2.31474L431.329 4.53269C436.555 6.77276 440.997 10.5188 444.086 15.2931V15.2931C448.103 21.5016 449.562 29.0238 448.157 36.284L444.347 55.9691L444.347 55.9691Z" fill="#1B4965"/>
<path d="M354.927 297.984L345.712 476.886L369.246 476.518L401.122 293.904L354.927 297.984Z" fill="#FFB6B6"/>
<path d="M460.157 212.394C460.157 212.394 480.157 243.394 478.157 287.394C478.157 287.394 422.157 322.394 352.157 301.394C352.157 301.394 359.157 239.394 368.157 229.394L460.157 212.394V212.394Z" fill="#2F2E41"/>
<path d="M373.847 463.469C373.847 463.469 386.847 497.469 369.847 499.469C352.847 501.469 303.847 510.469 303.847 497.469C303.847 484.469 328.847 479.469 328.847 479.469C328.847 479.469 340.847 460.469 345.847 462.469C350.847 464.469 354.847 475.469 363.847 472.469C372.847 469.469 373.847 463.469 373.847 463.469Z" fill="#2F2E41"/>
</g>
<defs>
<clipPath id="clip0_71_337">
<rect width="731.67" height="504.365" fill="white"/>
</clipPath>
</defs>
</svg>
