<svg width="100" height="100" viewBox="0 0 100 100" fill="none" xmlns="http://www.w3.org/2000/svg">
<circle cx="50" cy="50" r="49.5" fill="#337E96" stroke="#1B4965"/>
<path d="M34.4545 91.9427C31.2853 92.7905 28.4226 93.0869 26.0316 92.9786L34.4545 91.9427Z" fill="#D9D9D9"/>
<path d="M8 24.4428C38.4101 58.2141 72.4916 32.5545 85 16C72.9139 79.1721 40.6519 93.6408 26.0316 92.9786L82.5633 86.0257" stroke="#1B4965" stroke-width="2"/>
<path d="M42.8203 51.7578V66.875H40.6406V49.3203H42.6328L42.8203 51.7578ZM51.3633 55.5547V55.8008C51.3633 56.7227 51.2539 57.5781 51.0352 58.3672C50.8164 59.1484 50.4961 59.8281 50.0742 60.4062C49.6602 60.9844 49.1484 61.4336 48.5391 61.7539C47.9297 62.0742 47.2305 62.2344 46.4414 62.2344C45.6367 62.2344 44.9258 62.1016 44.3086 61.8359C43.6914 61.5703 43.168 61.1836 42.7383 60.6758C42.3086 60.168 41.9648 59.5586 41.707 58.8477C41.457 58.1367 41.2852 57.3359 41.1914 56.4453V55.1328C41.2852 54.1953 41.4609 53.3555 41.7188 52.6133C41.9766 51.8711 42.3164 51.2383 42.7383 50.7148C43.168 50.1836 43.6875 49.7812 44.2969 49.5078C44.9062 49.2266 45.6094 49.0859 46.4062 49.0859C47.2031 49.0859 47.9102 49.2422 48.5273 49.5547C49.1445 49.8594 49.6641 50.2969 50.0859 50.8672C50.5078 51.4375 50.8242 52.1211 51.0352 52.918C51.2539 53.707 51.3633 54.5859 51.3633 55.5547ZM49.1836 55.8008V55.5547C49.1836 54.9219 49.1172 54.3281 48.9844 53.7734C48.8516 53.2109 48.6445 52.7188 48.3633 52.2969C48.0898 51.8672 47.7383 51.5312 47.3086 51.2891C46.8789 51.0391 46.3672 50.9141 45.7734 50.9141C45.2266 50.9141 44.75 51.0078 44.3438 51.1953C43.9453 51.3828 43.6055 51.6367 43.3242 51.957C43.043 52.2695 42.8125 52.6289 42.6328 53.0352C42.4609 53.4336 42.332 53.8477 42.2461 54.2773V57.3125C42.4023 57.8594 42.6211 58.375 42.9023 58.8594C43.1836 59.3359 43.5586 59.7227 44.0273 60.0195C44.4961 60.3086 45.0859 60.4531 45.7969 60.4531C46.3828 60.4531 46.8867 60.332 47.3086 60.0898C47.7383 59.8398 48.0898 59.5 48.3633 59.0703C48.6445 58.6406 48.8516 58.1484 48.9844 57.5938C49.1172 57.0312 49.1836 56.4336 49.1836 55.8008Z" fill="#0CCE6B"/>
<path d="M59.4375 49.3203V50.9844H52.582V49.3203H59.4375ZM54.9023 46.2383H57.0703V58.8594C57.0703 59.2891 57.1367 59.6133 57.2695 59.832C57.4023 60.0508 57.5742 60.1953 57.7852 60.2656C57.9961 60.3359 58.2227 60.3711 58.4648 60.3711C58.6445 60.3711 58.832 60.3555 59.0273 60.3242C59.2305 60.2852 59.3828 60.2539 59.4844 60.2305L59.4961 62C59.3242 62.0547 59.0977 62.1055 58.8164 62.1523C58.543 62.207 58.2109 62.2344 57.8203 62.2344C57.2891 62.2344 56.8008 62.1289 56.3555 61.918C55.9102 61.707 55.5547 61.3555 55.2891 60.8633C55.0312 60.3633 54.9023 59.6914 54.9023 58.8477V46.2383Z" fill="white"/>
</svg>
