<svg width="50" height="54" viewBox="0 0 50 54" fill="none" xmlns="http://www.w3.org/2000/svg">
<mask id="mask0_12_207" style="mask-type:alpha" maskUnits="userSpaceOnUse" x="0" y="0" width="50" height="54">
<rect y="0.722656" width="50" height="52.401" fill="#D9D9D9"/>
</mask>
<g mask="url(#mask0_12_207)">
<path d="M25 26.9232C22.7084 26.9232 20.7466 26.068 19.1146 24.3577C17.4827 22.6474 16.6667 20.5914 16.6667 18.1897C16.6667 15.788 17.4827 13.7319 19.1146 12.0216C20.7466 10.3113 22.7084 9.45618 25 9.45618C27.2917 9.45618 29.2535 10.3113 30.8855 12.0216C32.5174 13.7319 33.3334 15.788 33.3334 18.1897C33.3334 20.5914 32.5174 22.6474 30.8855 24.3577C29.2535 26.068 27.2917 26.9232 25 26.9232ZM8.33337 44.3901V38.2767C8.33337 37.0395 8.63754 35.9019 9.24587 34.8641C9.85282 33.8277 10.6598 33.0366 11.6667 32.4908C13.8195 31.3627 16.007 30.5163 18.2292 29.9515C20.4514 29.3882 22.7084 29.1065 25 29.1065C27.2917 29.1065 29.5487 29.3882 31.7709 29.9515C33.9931 30.5163 36.1806 31.3627 38.3334 32.4908C39.3403 33.0366 40.1473 33.8277 40.7542 34.8641C41.3625 35.9019 41.6667 37.0395 41.6667 38.2767V44.3901H8.33337ZM12.5 40.0234H37.5V38.2767C37.5 37.8764 37.4049 37.5125 37.2146 37.185C37.023 36.8575 36.7709 36.6028 36.4584 36.4208C34.5834 35.4383 32.691 34.7011 30.7813 34.2091C28.8716 33.7185 26.9445 33.4733 25 33.4733C23.0556 33.4733 21.1285 33.7185 19.2188 34.2091C17.3091 34.7011 15.4167 35.4383 13.5417 36.4208C13.2292 36.6028 12.9778 36.8575 12.7875 37.185C12.5959 37.5125 12.5 37.8764 12.5 38.2767V40.0234ZM25 22.5564C26.1459 22.5564 27.1271 22.1285 27.9438 21.2726C28.7591 20.4182 29.1667 19.3905 29.1667 18.1897C29.1667 16.9888 28.7591 15.9612 27.9438 15.1067C27.1271 14.2509 26.1459 13.8229 25 13.8229C23.8542 13.8229 22.8737 14.2509 22.0584 15.1067C21.2417 15.9612 20.8334 16.9888 20.8334 18.1897C20.8334 19.3905 21.2417 20.4182 22.0584 21.2726C22.8737 22.1285 23.8542 22.5564 25 22.5564Z" fill="#1C1B1F"/>
</g>
</svg>
