<svg width="50" height="53" viewBox="0 0 50 53" fill="none" xmlns="http://www.w3.org/2000/svg">
<mask id="mask0_12_173" style="mask-type:alpha" maskUnits="userSpaceOnUse" x="0" y="0" width="50" height="53">
<rect y="0.56665" width="50" height="52.401" fill="#D9D9D9"/>
</mask>
<g mask="url(#mask0_12_173)">
<path d="M25 35.5008C27.6042 35.5008 29.8181 34.5459 31.6417 32.6362C33.4639 30.725 34.375 28.4048 34.375 25.6756C34.375 22.9464 33.4639 20.6262 31.6417 18.715C29.8181 16.8053 27.6042 15.8504 25 15.8504C22.3959 15.8504 20.182 16.8053 18.3584 18.715C16.5362 20.6262 15.625 22.9464 15.625 25.6756C15.625 28.4048 16.5362 30.725 18.3584 32.6362C20.182 34.5459 22.3959 35.5008 25 35.5008ZM25 31.5707C23.4375 31.5707 22.1098 30.9972 21.0167 29.8502C19.9223 28.7047 19.375 27.3131 19.375 25.6756C19.375 24.0381 19.9223 22.6458 21.0167 21.4988C22.1098 20.3533 23.4375 19.7805 25 19.7805C26.5625 19.7805 27.891 20.3533 28.9855 21.4988C30.0785 22.6458 30.625 24.0381 30.625 25.6756C30.625 27.3131 30.0785 28.7047 28.9855 29.8502C27.891 30.9972 26.5625 31.5707 25 31.5707ZM25 42.0509C19.9306 42.0509 15.3125 40.5677 11.1459 37.6012C6.97921 34.6362 3.95837 30.661 2.08337 25.6756C3.95837 20.6902 6.97921 16.7143 11.1459 13.7478C15.3125 10.7828 19.9306 9.30029 25 9.30029C30.0695 9.30029 34.6875 10.7828 38.8542 13.7478C43.0209 16.7143 46.0417 20.6902 47.9167 25.6756C46.0417 30.661 43.0209 34.6362 38.8542 37.6012C34.6875 40.5677 30.0695 42.0509 25 42.0509ZM25 37.6841C28.9237 37.6841 32.5264 36.6012 35.8084 34.4353C39.0889 32.2708 41.5973 29.3509 43.3334 25.6756C41.5973 22.0002 39.0889 19.0796 35.8084 16.9137C32.5264 14.7493 28.9237 13.667 25 13.667C21.0764 13.667 17.4737 14.7493 14.1917 16.9137C10.9112 19.0796 8.40282 22.0002 6.66671 25.6756C8.40282 29.3509 10.9112 32.2708 14.1917 34.4353C17.4737 36.6012 21.0764 37.6841 25 37.6841Z" fill="#1C1B1F"/>
</g>
</svg>
