<svg width="692" height="716" viewBox="0 0 692 716" fill="none" xmlns="http://www.w3.org/2000/svg">
<path d="M250.581 525.136C250.581 525.136 327.889 499.824 402.604 485.08C477.318 470.335 547.159 441.306 593.873 370.915C640.491 300.639 611.551 215.973 586.045 179.083C560.538 142.193 494.295 85.6285 430.763 74.6641C367.23 63.6998 298.638 104.559 268.39 138.971C238.142 173.384 211.847 272.476 213.113 335.684C214.379 398.893 196.577 482.958 196.577 482.958L126.75 564.538L181.689 608.874L250.581 525.136ZM449.203 414.592C443.505 416.476 437.266 413.398 435.267 407.603C433.383 401.905 436.461 395.666 442.256 393.667C447.954 391.783 454.193 394.861 456.192 400.656C458.191 406.45 454.998 412.593 449.203 414.592ZM405.388 191.584C407.272 197.282 404.194 203.521 398.399 205.52C392.701 207.405 386.462 204.326 384.463 198.531C382.579 192.833 385.657 186.595 391.452 184.595C397.361 182.692 403.504 185.886 405.388 191.584ZM407.144 172.669C405.26 166.971 408.338 160.732 414.133 158.733C419.928 156.733 426.07 159.927 428.069 165.722C429.954 171.42 426.875 177.658 421.081 179.658C415.286 181.657 408.932 178.482 407.144 172.669ZM383.524 214.603C385.408 220.301 382.33 226.54 376.535 228.54C370.837 230.424 364.598 227.345 362.599 221.551C360.715 215.853 363.793 209.614 369.588 207.615C375.497 205.712 381.64 208.905 383.524 214.603ZM461.992 261.037C460.108 255.339 463.186 249.101 468.981 247.101C474.775 245.102 480.918 248.295 482.917 254.09C484.801 259.788 481.723 266.027 475.928 268.026C470.115 269.814 463.876 266.735 461.992 261.037ZM461.071 277.321C462.956 283.019 459.877 289.258 454.083 291.257C448.288 293.256 442.146 290.063 440.146 284.268C438.262 278.57 441.341 272.331 447.135 270.332C452.93 268.333 459.072 271.526 461.071 277.321ZM428.999 271.386C423.301 273.27 417.062 270.192 415.063 264.397C413.179 258.699 416.257 252.46 422.052 250.461C427.75 248.576 433.989 251.655 435.988 257.45C437.776 263.263 434.697 269.502 428.999 271.386ZM437.023 241.263C435.139 235.565 438.218 229.326 444.012 227.326C449.71 225.442 455.949 228.521 457.949 234.315C459.833 240.013 456.754 246.252 450.96 248.251C445.05 250.154 438.811 247.076 437.023 241.263ZM459.512 215.63C457.627 209.932 460.706 203.693 466.501 201.694C472.199 199.81 478.437 202.888 480.437 208.683C482.321 214.381 479.243 220.62 473.448 222.619C467.538 224.522 461.396 221.328 459.512 215.63ZM423.464 225.18C417.766 227.064 411.527 223.986 409.528 218.191C407.644 212.493 410.722 206.254 416.517 204.255C422.215 202.371 428.454 205.449 430.453 211.244C432.356 217.153 429.162 223.296 423.464 225.18ZM363.883 239.88C365.767 245.578 362.688 251.817 356.894 253.816C351.196 255.7 344.957 252.622 342.958 246.827C341.073 241.129 344.152 234.89 349.946 232.891C355.741 230.892 361.998 234.182 363.883 239.88ZM387.779 241.307C385.895 235.609 388.973 229.37 394.768 227.371C400.466 225.487 406.705 228.565 408.704 234.36C410.588 240.058 407.51 246.297 401.715 248.296C395.902 250.084 389.663 247.005 387.779 241.307ZM388.851 259.655C390.735 265.353 387.657 271.592 381.862 273.591C376.164 275.475 369.925 272.397 367.926 266.602C366.042 260.904 369.12 254.665 374.915 252.666C380.825 250.763 387.063 253.842 388.851 259.655ZM370.784 285.86C372.668 291.558 369.589 297.797 363.795 299.796C358.097 301.68 351.858 298.602 349.858 292.807C347.974 287.109 351.053 280.87 356.847 278.871C362.642 276.872 368.784 280.065 370.784 285.86ZM402.41 275.737C408.108 273.853 414.347 276.932 416.347 282.726C418.231 288.424 415.152 294.663 409.358 296.662C403.66 298.547 397.421 295.468 395.422 289.674C393.519 283.764 396.712 277.622 402.41 275.737ZM398.067 308.95C399.952 314.648 396.873 320.887 391.079 322.886C385.284 324.885 379.142 321.692 377.142 315.897C375.258 310.199 378.337 303.96 384.131 301.961C390.041 300.058 396.183 303.252 398.067 308.95ZM420.487 309.333C418.602 303.635 421.681 297.396 427.475 295.397C433.27 293.398 439.412 296.591 441.412 302.386C443.296 308.084 440.217 314.323 434.423 316.322C428.513 318.225 422.371 315.031 420.487 309.333ZM468.507 307.477C466.622 301.779 469.701 295.54 475.496 293.541C481.194 291.657 487.432 294.735 489.432 300.53C491.316 306.228 488.238 312.467 482.443 314.466C476.533 316.369 470.294 313.29 468.507 307.477ZM469.694 325.922C471.578 331.62 468.5 337.858 462.705 339.858C457.007 341.742 450.768 338.664 448.769 332.869C446.77 327.074 449.963 320.932 455.758 318.933C461.552 316.933 467.695 320.127 469.694 325.922ZM423.132 328.609C425.017 334.307 421.938 340.546 416.144 342.546C410.446 344.43 404.207 341.351 402.207 335.557C400.208 329.762 403.402 323.62 409.196 321.621C415.009 319.833 421.248 322.911 423.132 328.609ZM401.669 352.553C403.553 358.251 400.475 364.49 394.68 366.489C388.982 368.374 382.743 365.295 380.744 359.501C378.86 353.802 381.938 347.564 387.733 345.564C393.642 343.661 399.785 346.855 401.669 352.553ZM437.575 345.041C443.273 343.157 449.512 346.235 451.511 352.03C453.396 357.728 450.317 363.967 444.522 365.966C438.824 367.851 432.586 364.772 430.586 358.977C428.702 353.279 431.78 347.041 437.575 345.041ZM384.101 384.471C385.985 390.169 382.907 396.407 377.112 398.407C371.318 400.406 365.175 397.213 363.176 391.418C361.292 385.72 364.37 379.481 370.165 377.482C376.075 375.579 382.217 378.773 384.101 384.471ZM409.104 382.71C407.22 377.011 410.299 370.773 416.093 368.773C421.791 366.889 428.03 369.967 430.029 375.762C432.029 381.557 428.835 387.699 423.041 389.698C417.246 391.698 411.104 388.504 409.104 382.71ZM409.07 404.245C410.954 409.943 407.875 416.182 402.081 418.182C396.383 420.066 390.144 416.987 388.145 411.193C386.145 405.398 389.339 399.256 395.133 397.257C401.043 395.354 407.282 398.432 409.07 404.245ZM477.674 376.924C479.558 382.622 476.48 388.861 470.685 390.86C464.89 392.859 458.748 389.666 456.749 383.871C454.749 378.076 457.943 371.934 463.738 369.935C469.532 367.935 475.886 371.111 477.674 376.924ZM488.849 364.54C483.151 366.424 476.912 363.346 474.913 357.551C473.029 351.853 476.107 345.614 481.902 343.615C487.6 341.731 493.839 344.809 495.838 350.604C497.837 356.398 494.759 362.637 488.849 364.54ZM508.605 339.36C502.907 341.244 496.669 338.166 494.669 332.371C492.785 326.673 495.863 320.434 501.658 318.435C507.356 316.55 513.595 319.629 515.594 325.424C517.594 331.218 514.4 337.36 508.605 339.36ZM530.451 316.129C524.753 318.013 518.514 314.935 516.515 309.14C514.631 303.442 517.709 297.203 523.504 295.204C529.202 293.32 535.441 296.398 537.44 302.193C539.343 308.102 536.264 314.341 530.451 316.129ZM560.043 276.657C561.928 282.355 558.849 288.594 553.054 290.593C547.356 292.477 541.118 289.399 539.118 283.604C537.234 277.906 540.312 271.667 546.107 269.668C551.92 267.88 558.159 270.959 560.043 276.657ZM504.095 291.465C498.397 293.35 492.159 290.271 490.159 284.476C488.16 278.682 491.353 272.54 497.148 270.54C502.846 268.656 509.085 271.734 511.084 277.529C513.084 283.324 510.005 289.563 504.095 291.465ZM533.784 251.878C535.668 257.576 532.59 263.815 526.795 265.815C521.097 267.699 514.858 264.62 512.859 258.826C510.86 253.031 514.053 246.889 519.848 244.889C525.642 242.89 531.9 246.18 533.784 251.878ZM552.809 226.869C554.693 232.567 551.615 238.806 545.82 240.805C540.026 242.804 533.883 239.611 531.884 233.816C530 228.118 533.078 221.879 538.873 219.88C544.686 218.092 550.925 221.171 552.809 226.869ZM498.417 242.394C492.718 244.278 486.48 241.2 484.48 235.405C482.596 229.707 485.674 223.468 491.469 221.469C497.167 219.585 503.406 222.663 505.405 228.458C507.405 234.252 504.211 240.395 498.417 242.394ZM524.545 203.545C526.43 209.243 523.351 215.482 517.557 217.481C511.859 219.365 505.62 216.287 503.62 210.492C501.736 204.794 504.815 198.555 510.609 196.556C516.404 194.557 522.546 197.75 524.545 203.545ZM499.365 183.788C501.25 189.486 498.171 195.725 492.376 197.725C486.678 199.609 480.44 196.53 478.44 190.736C476.556 185.038 479.634 178.799 485.429 176.8C491.339 174.897 497.578 177.975 499.365 183.788ZM446.049 199.433C440.351 201.317 434.112 198.238 432.113 192.444C430.228 186.746 433.307 180.507 439.102 178.508C444.8 176.623 451.039 179.702 453.038 185.496C454.941 191.406 451.862 197.645 446.049 199.433ZM472.081 160.698C473.966 166.397 470.887 172.635 465.093 174.635C459.395 176.519 453.156 173.44 451.156 167.646C449.272 161.948 452.351 155.709 458.145 153.71C463.94 151.71 470.179 154.789 472.081 160.698ZM446.998 140.827C448.882 146.525 445.804 152.764 440.009 154.763C434.311 156.648 428.072 153.569 426.073 147.775C424.188 142.076 427.267 135.838 433.062 133.838C438.875 132.051 445.114 135.129 446.998 140.827ZM383.464 135.939C389.162 134.055 395.401 137.133 397.4 142.928C399.4 148.722 396.206 154.865 390.411 156.864C384.713 158.748 378.474 155.67 376.475 149.875C374.476 144.081 377.766 137.823 383.464 135.939ZM360.976 161.571C366.674 159.687 372.913 162.766 374.912 168.56C376.911 174.355 373.718 180.497 367.923 182.496C362.225 184.381 355.986 181.302 353.987 175.508C351.987 169.713 355.181 163.571 360.976 161.571ZM339.015 184.706C344.713 182.821 350.952 185.9 352.951 191.694C354.836 197.393 351.757 203.631 345.962 205.631C340.264 207.515 334.026 204.436 332.026 198.642C330.238 192.829 333.317 186.59 339.015 184.706ZM312.366 223.707C310.482 218.009 313.561 211.77 319.355 209.771C325.053 207.886 331.292 210.965 333.291 216.76C335.291 222.554 332.097 228.696 326.303 230.696C320.508 232.695 314.366 229.502 312.366 223.707ZM301.191 236.091C306.889 234.206 313.128 237.285 315.127 243.079C317.012 248.778 313.933 255.016 308.138 257.016C302.44 258.9 296.202 255.822 294.202 250.027C292.203 244.232 295.396 238.09 301.191 236.091ZM272.72 273.759C270.836 268.061 273.915 261.822 279.709 259.823C285.407 257.938 291.646 261.017 293.645 266.812C295.645 272.606 292.451 278.748 286.657 280.748C280.862 282.747 274.72 279.554 272.72 273.759ZM331.764 259C337.462 257.115 343.701 260.194 345.7 265.988C347.699 271.783 344.506 277.925 338.711 279.925C333.013 281.809 326.774 278.73 324.775 272.936C322.987 267.123 326.066 260.884 331.764 259ZM303.408 296.764C301.524 291.066 304.602 284.827 310.397 282.828C316.095 280.944 322.334 284.022 324.333 289.817C326.217 295.515 323.139 301.754 317.344 303.753C311.435 305.656 305.292 302.462 303.408 296.764ZM280.236 325.548C278.352 319.85 281.43 313.611 287.225 311.612C292.923 309.727 299.162 312.806 301.161 318.6C303.045 324.299 299.967 330.537 294.172 332.537C288.263 334.439 282.12 331.246 280.236 325.548ZM328.377 316.539C326.492 310.841 329.571 304.602 335.365 302.603C341.16 300.604 347.302 303.797 349.302 309.592C351.186 315.29 348.107 321.529 342.313 323.528C336.518 325.527 330.261 322.237 328.377 316.539ZM310.809 348.457C308.924 342.759 312.003 336.52 317.797 334.52C323.495 332.636 329.734 335.715 331.734 341.509C333.733 347.304 330.539 353.446 324.745 355.446C318.835 357.348 312.693 354.155 310.809 348.457ZM355.757 339.514C353.873 333.816 356.951 327.577 362.746 325.578C368.444 323.694 374.683 326.772 376.682 332.567C378.566 338.265 375.488 344.504 369.693 346.503C363.899 348.502 357.66 345.424 355.757 339.514ZM342.881 354.392C348.579 352.508 354.818 355.586 356.817 361.381C358.817 367.175 355.623 373.318 349.828 375.317C344.034 377.316 337.892 374.123 335.892 368.328C333.893 362.533 337.183 356.276 342.881 354.392ZM233.148 472.083L258.828 401.294L320.402 450.805L249.318 483.887L233.148 472.083Z" fill="#00343E"/>
<mask id="mask0_463_263" style="mask-type:alpha" maskUnits="userSpaceOnUse" x="346" y="0" width="200" height="550">
<rect x="346" width="200" height="550" fill="#D9D9D9"/>
</mask>
<g mask="url(#mask0_463_263)">
<path d="M429.332 527.084V320.834H404.332V45.834H487.665L454.332 252.084H487.665L429.332 527.084Z" fill="white"/>
</g>
</svg>
